<?xml version="1.0" encoding="UTF-8" standalone="no"?>
<!-- Created with Inkscape (http://www.inkscape.org/) -->

<svg
   xmlns:dc="http://purl.org/dc/elements/1.1/"
   xmlns:cc="http://creativecommons.org/ns#"
   xmlns:rdf="http://www.w3.org/1999/02/22-rdf-syntax-ns#"
   xmlns:svg="http://www.w3.org/2000/svg"
   xmlns="http://www.w3.org/2000/svg"
   version="1.1"
   width="141.96426"
   height="27.767859"
   id="svg3524">
  <defs
     id="defs3526" />
  <metadata
     id="metadata3529">
    <rdf:RDF>
      <cc:Work
         rdf:about="">
        <dc:format>image/svg+xml</dc:format>
        <dc:type
           rdf:resource="http://purl.org/dc/dcmitype/StillImage" />
        <dc:title></dc:title>
      </cc:Work>
    </rdf:RDF>
  </metadata>
  <g
     transform="translate(0,-9.6937742)"
     id="layer3">
    <rect
       width="141.96426"
       height="28.928574"
       x="3.5190446e-008"
       y="8.5330601"
       id="rect3140"
       style="fill:#000000;fill-opacity:1;fill-rule:nonzero;stroke:none">
      <title
         id="title3776">Fond</title>
    </rect>
  </g>
  <g
     transform="translate(-304.2011,-523.50372)"
     id="layer1">
    <path
       d="m 437.54303,533.34656 c -0.95997,1e-5 -1.87183,0.16798 -2.73559,0.5039 -0.86378,0.33596 -1.61573,0.80788 -2.25586,1.41578 -0.64014,0.60792 -1.16016,1.31178 -1.56006,2.11157 -0.39991,0.79981 -0.6482,1.66407 -0.74487,2.59277 -0.0313,0.3838 -0.0391,0.75953 -0.0234,1.1272 0.0156,0.36768 0.0557,0.72779 0.12012,1.08032 2.14354,-0.86425 4.28734,-1.72045 6.43139,-2.5686 2.14403,-0.84814 4.30443,-1.70385 6.4812,-2.56714 -0.54396,-1.08788 -1.32814,-1.97582 -2.35254,-2.66382 -1.02442,-0.68797 -2.14454,-1.03197 -3.36035,-1.03198 z m 8.25587,4.79883 c -2.49612,0.99219 -4.97609,1.97632 -7.43995,2.95239 -2.46387,0.97608 -4.94385,1.96021 -7.43994,2.95239 0.54394,1.21583 1.40795,2.20777 2.59204,2.97583 1.18407,0.76807 2.52808,1.1521 4.03198,1.1521 0.99218,0 1.92016,-0.17602 2.78394,-0.52808 0.86375,-0.35204 1.61595,-0.84789 2.25659,-1.48754 0.22362,0.25586 0.43138,0.50366 0.62329,0.7434 0.19188,0.23975 0.40013,0.48756 0.62476,0.74341 -0.83205,0.76856 -1.77614,1.37671 -2.83228,1.82447 -1.05616,0.44775 -2.20826,0.67163 -3.4563,0.67163 -1.31153,0 -2.53541,-0.24781 -3.67163,-0.74341 -1.13623,-0.49561 -2.12842,-1.15942 -2.97656,-1.99146 -0.84815,-0.83203 -1.52002,-1.81615 -2.01563,-2.95239 -0.4956,-1.13622 -0.74341,-2.3601 -0.7434,-3.67163 -10e-6,-1.28026 0.2478,-2.49633 0.7434,-3.64819 0.49561,-1.15185 1.16748,-2.14379 2.01563,-2.97583 0.84814,-0.83202 1.84033,-1.49608 2.97656,-1.99219 1.13622,-0.49608 2.3601,-0.74412 3.67163,-0.74414 0.95995,2e-5 1.87206,0.16798 2.73633,0.5039 0.86424,0.33596 1.65624,0.79983 2.37598,1.39161 0.71971,0.59181 1.35154,1.29591 1.89551,2.1123 0.54392,0.81642 0.95994,1.72023 1.24805,2.71143 z m -16.39851,8.44922 c 0.22461,0.25586 0.44091,0.50366 0.64893,0.7434 0.20799,0.23975 0.4077,0.48755 0.59912,0.74341 -0.83205,0.64063 -1.74391,1.14478 -2.7356,1.51245 -0.99171,0.36768 -2.06373,0.55152 -3.21606,0.55152 -1.31153,0 -2.53541,-0.24781 -3.67163,-0.74341 -1.13624,-0.49561 -2.12842,-1.15942 -2.97656,-1.99146 -0.84815,-0.83203 -1.52003,-1.81615 -2.01563,-2.95239 -0.49561,-1.13622 -0.74341,-2.3601 -0.74341,-3.67163 0,-1.28026 0.2478,-2.49633 0.74341,-3.64819 0.4956,-1.15185 1.16748,-2.14379 2.01563,-2.97583 0.84814,-0.83202 1.84032,-1.49608 2.97656,-1.99219 1.13622,-0.49608 2.3601,-0.74412 3.67163,-0.74414 1.15233,2e-5 2.24047,0.1841 3.2644,0.55224 1.02392,0.36819 1.93578,0.87209 2.7356,1.51172 -0.22365,0.25588 -0.43947,0.50392 -0.64746,0.74414 -0.20802,0.24025 -0.42432,0.4883 -0.64893,0.74414 -0.63966,-0.51268 -1.35157,-0.91282 -2.13574,-1.20044 -0.78419,-0.28758 -1.64015,-0.43138 -2.56787,-0.43139 -1.05567,1e-5 -2.0315,0.19191 -2.92749,0.57568 -0.896,0.38381 -1.67213,0.91164 -2.32837,1.5835 -0.65625,0.67189 -1.17627,1.46388 -1.56006,2.37597 -0.38379,0.91212 -0.57568,1.88039 -0.57568,2.90479 0,1.02345 0.19189,1.98316 0.57568,2.87915 0.38379,0.896 0.90381,1.67994 1.56006,2.35181 0.65624,0.67187 1.43237,1.19995 2.32837,1.58423 0.89599,0.38427 1.87182,0.57641 2.92749,0.57641 1.82421,0 3.39208,-0.52783 4.70361,-1.58349 z M 396.6717,540.7865 c 0,1.02345 0.19189,1.98316 0.57569,2.87915 0.38378,0.896 0.9038,1.67994 1.56005,2.35181 0.65625,0.67187 1.44044,1.19995 2.35254,1.58423 0.91211,0.38427 1.89599,0.57641 2.95166,0.57641 1.05566,0 2.03148,-0.19214 2.92749,-0.57641 0.89598,-0.38428 1.68016,-0.91236 2.35255,-1.58423 0.67235,-0.67187 1.20041,-1.45581 1.58422,-2.35181 0.38378,-0.89599 0.57568,-1.8557 0.5757,-2.87915 -2e-5,-1.0244 -0.19192,-1.99267 -0.5757,-2.90479 -0.3838,-0.91209 -0.91187,-1.70408 -1.58422,-2.37597 -0.67239,-0.67186 -1.45657,-1.19969 -2.35255,-1.5835 -0.89601,-0.38377 -1.87183,-0.57567 -2.92749,-0.57568 -1.05567,1e-5 -2.03955,0.19191 -2.95166,0.57568 -0.9121,0.38381 -1.69629,0.91164 -2.35254,1.5835 -0.65625,0.67189 -1.17627,1.46388 -1.56005,2.37597 -0.3838,0.91212 -0.57569,1.88039 -0.57569,2.90479 z m -2.01562,0 c 0,-1.28026 0.2478,-2.48851 0.74341,-3.62476 0.4956,-1.13621 1.16747,-2.12816 2.01563,-2.97583 0.84813,-0.84764 1.84813,-1.51951 3,-2.01562 1.15184,-0.49608 2.38401,-0.74412 3.69652,-0.74414 0.92773,2e-5 1.80761,0.136 2.63965,0.40796 0.83202,0.27199 1.58397,0.62404 2.25586,1.05615 0.67186,0.43214 1.23997,0.92824 1.70435,1.48828 0.46433,0.56007 0.80833,1.11208 1.03198,1.65601 -10e-6,-0.70409 0.0239,-1.40819 0.0718,-2.11231 0.0478,-0.70408 0.0879,-1.40818 0.1201,-2.1123 l 1.63184,0 0,18 -1.82373,0 0,-2.16065 c -2e-5,-0.35156 0.008,-0.68725 0.0242,-1.00708 0.0161,-0.31982 0.0241,-0.656 0.0242,-1.00854 -0.1924,0.54395 -0.52053,1.08789 -0.98438,1.63183 -0.46388,0.54395 -1.02394,1.03199 -1.68017,1.46411 -0.65627,0.43213 -1.40822,0.77613 -2.25586,1.03199 -0.84767,0.25586 -1.76759,0.38379 -2.75977,0.38379 -1.31251,0 -2.54468,-0.24781 -3.69653,-0.74341 -1.15186,-0.49561 -2.15186,-1.15942 -3,-1.99146 -0.84815,-0.83203 -1.52002,-1.81615 -2.01562,-2.95239 -0.49561,-1.13622 -0.74341,-2.3601 -0.74341,-3.67163 z m -1.89926,-7.20117 c -0.19239,0.25685 -0.39259,0.49708 -0.60057,0.7207 -0.20803,0.22365 -0.39211,0.46339 -0.55226,0.71924 -0.3838,-0.44725 -0.92774,-0.81493 -1.63182,-1.10303 -0.70412,-0.28807 -1.40823,-0.43211 -2.11231,-0.43213 -0.3838,2e-5 -0.76758,0.0559 -1.15138,0.16773 -0.38378,0.11183 -0.73584,0.28786 -1.05615,0.52807 -0.32032,0.24025 -0.56836,0.54421 -0.74414,0.91187 -0.17579,0.36769 -0.26368,0.8235 -0.26367,1.36743 0.0322,0.70411 0.27222,1.25636 0.71998,1.65674 0.44775,0.4004 0.99168,0.73658 1.63183,1.00854 0.64012,0.27199 1.34422,0.52785 2.1123,0.76758 0.76807,0.23976 1.47217,0.55177 2.11232,0.93604 0.64011,0.38428 1.176,0.88038 1.60765,1.48828 0.43163,0.60792 0.64745,1.42359 0.64746,2.44702 -1e-5,0.54395 -0.10402,1.12793 -0.31201,1.75195 -0.20802,0.62403 -0.5359,1.20801 -0.98364,1.75196 -0.44777,0.54394 -1.03956,1 -1.77538,1.36816 -0.73586,0.36816 -1.64822,0.55225 -2.73707,0.55225 -0.99122,0 -2.02296,-0.17603 -3.09522,-0.52808 -1.07227,-0.35205 -1.92822,-0.92798 -2.56787,-1.72778 0.22363,-0.25586 0.43139,-0.49585 0.62329,-0.71997 0.1919,-0.22412 0.41626,-0.46411 0.6731,-0.71997 0.51171,0.54394 1.18359,0.96802 2.01563,1.27221 0.83202,0.3042 1.66406,0.4563 2.4961,0.4563 0.28806,0 0.64011,-0.0562 1.05615,-0.16846 0.41599,-0.1123 0.8159,-0.30444 1.1997,-0.57641 0.38377,-0.27197 0.71165,-0.61597 0.98364,-1.03198 0.27196,-0.41602 0.40794,-0.92773 0.40796,-1.53516 -2e-5,-0.83203 -0.20801,-1.47216 -0.62403,-1.92041 -0.41602,-0.44824 -0.95191,-0.80834 -1.60766,-1.08032 -0.65576,-0.27197 -1.36769,-0.51196 -2.13574,-0.71997 -0.76808,-0.208 -1.48024,-0.48803 -2.13648,-0.84009 -0.65625,-0.35204 -1.20826,-0.81591 -1.65601,-1.3916 -0.44775,-0.57568 -0.67163,-1.39184 -0.67163,-2.44849 0,-0.83202 0.15992,-1.56004 0.47974,-2.18408 0.31982,-0.62401 0.73584,-1.14403 1.24806,-1.56006 0.51219,-0.416 1.07225,-0.72801 1.68016,-0.93604 0.60791,-0.20799 1.19995,-0.31199 1.77614,-0.31201 0.67185,2e-5 1.49584,0.15212 2.47191,0.4563 0.97606,0.30422 1.80004,0.84011 2.47192,1.60767 z m -12.39041,16.22461 -1.96728,0 0,-25.89626 1.96728,0 z M 359.7692,540.7865 c 0,1.02345 0.19189,1.98316 0.57569,2.87915 0.38378,0.896 0.9038,1.67994 1.56005,2.35181 0.65625,0.67187 1.44043,1.19995 2.35254,1.58423 0.9121,0.38427 1.89599,0.57641 2.95166,0.57641 1.05565,0 2.03148,-0.19214 2.92749,-0.57641 0.89598,-0.38428 1.68016,-0.91236 2.35254,-1.58423 0.67235,-0.67187 1.20042,-1.45581 1.58423,-2.35181 0.38377,-0.89599 0.57567,-1.8557 0.57569,-2.87915 -2e-5,-1.0244 -0.19192,-1.99267 -0.57569,-2.90479 -0.38381,-0.91209 -0.91188,-1.70408 -1.58423,-2.37597 -0.67238,-0.67186 -1.45656,-1.19969 -2.35254,-1.5835 -0.89601,-0.38377 -1.87184,-0.57567 -2.92749,-0.57568 -1.05567,1e-5 -2.03956,0.19191 -2.95166,0.57568 -0.91211,0.38381 -1.69629,0.91164 -2.35254,1.5835 -0.65625,0.67189 -1.17627,1.46388 -1.56005,2.37597 -0.3838,0.91212 -0.57569,1.88039 -0.57569,2.90479 z m -2.01562,0 c 0,-1.28026 0.2478,-2.48851 0.74341,-3.62476 0.4956,-1.13621 1.16747,-2.12816 2.01562,-2.97583 0.84814,-0.84764 1.84814,-1.51951 3,-2.01562 1.15185,-0.49608 2.38402,-0.74412 3.69653,-0.74414 0.92773,2e-5 1.80761,0.136 2.63965,0.40796 0.83202,0.27199 1.58397,0.62404 2.25586,1.05615 0.67186,0.43214 1.23997,0.92824 1.70435,1.48828 0.46433,0.56007 0.80833,1.11208 1.03198,1.65601 -2e-5,-0.70409 0.0239,-1.40819 0.0718,-2.11231 0.0478,-0.70408 0.0879,-1.40818 0.12011,-2.1123 l 1.63184,0 0,18 -1.82373,0 0,-2.16065 c -2e-5,-0.35156 0.008,-0.68725 0.0242,-1.00708 0.0161,-0.31982 0.0241,-0.656 0.0242,-1.00854 -0.1924,0.54395 -0.52053,1.08789 -0.98438,1.63183 -0.46388,0.54395 -1.02394,1.03199 -1.68017,1.46411 -0.65627,0.43213 -1.40822,0.77613 -2.25586,1.03199 -0.84767,0.25586 -1.76759,0.38379 -2.75977,0.38379 -1.31251,0 -2.54468,-0.24781 -3.69653,-0.74341 -1.15186,-0.49561 -2.15186,-1.15942 -3,-1.99146 -0.84815,-0.83203 -1.52002,-1.81615 -2.01562,-2.95239 -0.49561,-1.13622 -0.74341,-2.3601 -0.74341,-3.67163 z m -1.7027,9.21533 -2.01562,0 0,-2.68799 0.14355,-2.15918 c -0.63966,1.53516 -1.67164,2.75879 -3.09594,3.6709 -1.42433,0.91211 -3.01637,1.36817 -4.77613,1.36817 -1.75977,0 -3.15162,-0.49585 -4.17553,-1.48755 -1.02394,-0.9917 -1.56812,-2.28784 -1.63257,-3.88843 l 0,-13.00781 2.01562,0 0,12.48047 c 0.0644,1.02344 0.44067,1.91919 1.12866,2.68725 0.68798,0.76807 1.70385,1.18433 3.04761,1.24878 0.95995,0 1.88793,-0.16797 2.78394,-0.50391 0.89598,-0.33593 1.67991,-0.79198 2.3518,-1.36816 0.67186,-0.57617 1.20799,-1.2644 1.6084,-2.0647 0.40037,-0.80028 0.60057,-1.68041 0.60059,-2.64038 l 0,-9.83935 2.01562,0 z m -17.93281,-16.4165 c -0.19239,0.25685 -0.39259,0.49708 -0.60058,0.7207 -0.20802,0.22365 -0.39211,0.46339 -0.55225,0.71924 -0.3838,-0.44725 -0.92775,-0.81493 -1.63184,-1.10303 -0.70411,-0.28807 -1.40821,-0.43211 -2.1123,-0.43213 -0.3838,2e-5 -0.76759,0.0559 -1.15137,0.16773 -0.38379,0.11183 -0.73584,0.28786 -1.05615,0.52807 -0.32032,0.24025 -0.56837,0.54421 -0.74414,0.91187 -0.17579,0.36769 -0.26368,0.8235 -0.26367,1.36743 0.0322,0.70411 0.27221,1.25636 0.71997,1.65674 0.44775,0.4004 0.99169,0.73658 1.63183,1.00854 0.64013,0.27199 1.34423,0.52785 2.11231,0.76758 0.76805,0.23976 1.47216,0.55177 2.1123,0.93604 0.64013,0.38428 1.17602,0.88038 1.60767,1.48828 0.43163,0.60792 0.64745,1.42359 0.64746,2.44702 -10e-6,0.54395 -0.10402,1.12793 -0.31201,1.75195 -0.20802,0.62403 -0.5359,1.20801 -0.98364,1.75196 -0.44777,0.54394 -1.03957,1 -1.77539,1.36816 -0.73586,0.36816 -1.64821,0.55225 -2.73707,0.55225 -0.99121,0 -2.02295,-0.17603 -3.09521,-0.52808 -1.07227,-0.35205 -1.92823,-0.92798 -2.56787,-1.72778 0.22363,-0.25586 0.43139,-0.49585 0.62329,-0.71997 0.19189,-0.22412 0.41626,-0.46411 0.6731,-0.71997 0.51171,0.54394 1.18358,0.96802 2.01562,1.27221 0.83202,0.3042 1.66406,0.4563 2.49609,0.4563 0.28808,0 0.64013,-0.0562 1.05616,-0.16846 0.416,-0.1123 0.8159,-0.30444 1.1997,-0.57641 0.38378,-0.27197 0.71166,-0.61597 0.98365,-1.03198 0.27196,-0.41602 0.40794,-0.92773 0.40795,-1.53516 -1e-5,-0.83203 -0.20801,-1.47216 -0.62402,-1.92041 -0.41603,-0.44824 -0.95191,-0.80834 -1.60766,-1.08032 -0.65578,-0.27197 -1.36769,-0.51196 -2.13575,-0.71997 -0.76807,-0.208 -1.48023,-0.48803 -2.13647,-0.84009 -0.65626,-0.35204 -1.20826,-0.81591 -1.65601,-1.3916 -0.44775,-0.57568 -0.67163,-1.39184 -0.67163,-2.44849 0,-0.83202 0.15991,-1.56004 0.47974,-2.18408 0.31982,-0.62401 0.73583,-1.14403 1.24805,-1.56006 0.5122,-0.416 1.07225,-0.72801 1.68017,-0.93604 0.6079,-0.20799 1.19994,-0.31199 1.77612,-0.31201 0.67187,2e-5 1.49584,0.15212 2.47193,0.4563 0.97606,0.30422 1.80004,0.84011 2.47192,1.60767 z m -14.94484,-8.15918 c 0,-0.44822 0.16015,-0.8242 0.48047,-1.12793 0.32031,-0.30369 0.68847,-0.45554 1.10449,-0.45557 0.41601,3e-5 0.78393,0.15188 1.10376,0.45557 0.31982,0.30373 0.47973,0.67971 0.47974,1.12793 -1e-5,0.44826 -0.15992,0.82424 -0.47974,1.12793 -0.31983,0.30373 -0.68775,0.45559 -1.10376,0.45556 -0.41602,3e-5 -0.78418,-0.15183 -1.10449,-0.45556 -0.32032,-0.30369 -0.48047,-0.67967 -0.48047,-1.12793 z m 2.54443,24.38379 -1.96728,0 0,-18 1.96728,0 z m -11.67574,1.10449 c -1.63185,-3.20019 -3.27174,-6.38427 -4.91968,-9.55225 -1.64795,-3.16795 -3.28833,-6.35203 -4.92114,-9.55224 l 2.01709,0 c 1.31152,2.52833 2.65526,5.08839 4.03125,7.68017 1.37596,2.59181 2.64012,5.1836 3.79248,7.77539 1.15233,-2.59179 2.41649,-5.17577 3.79248,-7.75195 1.37596,-2.57616 2.71971,-5.14403 4.03125,-7.70361 l 2.01562,0 c -3.23146,6.30372 -6.51124,12.67188 -9.83935,19.10449 z"
       id="path4029"
       style="font-size:48px;font-style:normal;font-variant:normal;font-weight:normal;font-stretch:normal;line-height:125%;letter-spacing:-5.80999994px;word-spacing:0px;fill:#ffffff;fill-opacity:1;stroke:none;display:inline;font-family:Josefin Sans;-inkscape-font-specification:Josefin Sans">
      <title
         id="title5161">visualsace</title>
    </path>
  </g>
  <g
     transform="translate(-304.2011,-523.50372)"
     id="layer2">
    <g
       transform="translate(-7.6832331,7.978931)"
       id="g3040">
      <g
         transform="translate(-0.3788072,1.1364216)"
         id="g3122">
        <path
           d="m 382.01573,531.65534 c -0.30284,-0.41018 -1.08648,-0.18942 -1.10781,0.3314 -0.0722,0.50322 -0.73955,0.31911 -0.85386,0.73731 -0.0883,0.30385 0.0358,0.74006 -0.29868,0.92002 -0.35502,0.18424 -0.76877,0.13801 -1.14692,0.23628 -0.3881,0.0394 -0.90278,-0.51149 -1.19859,-0.10812 -0.154,0.34769 -0.574,0.37286 -0.7892,0.0725 -0.27183,-0.28605 -1.00227,-0.24055 -0.95777,-0.72187 0.16368,-0.2866 -0.005,-0.56245 -0.33582,-0.52381 -0.41829,-0.0291 -0.83923,-0.16022 -1.25553,-0.10158 -0.32714,0.0498 -0.71084,0.0738 -0.97304,-0.16613 -0.36338,0.0521 -0.78438,0.24444 -0.97457,0.55417 -0.19402,0.4345 -0.71042,0.21465 -1.01431,0.47632 -0.25352,0.21387 -0.64405,0.36726 -0.61328,0.75752 -0.0291,0.29351 -0.0328,0.63899 -0.28125,0.84301 -0.0977,0.46324 0.35858,0.78449 0.45762,1.2081 0.20266,0.36763 0.49249,0.68645 0.79381,0.97364 0.3619,0.24147 0.82318,0.24268 1.20102,0.45586 0.38956,0.17991 0.85968,-0.0369 1.24588,0.17764 0.24681,0.2447 0.56407,0.36628 0.90261,0.43517 0.56527,0.10158 0.0114,0.6891 0.38023,0.9818 0.40142,0.18131 0.60797,0.54706 0.85744,0.89542 0.304,0.21025 0.6936,0.0534 1.03163,0.0189 1.15233,-0.12641 2.32183,-0.44351 3.26862,-1.13775 0.64519,-0.4481 1.11181,-1.15123 1.21462,-1.9359 0.0475,-0.34558 0.11318,-0.76472 -0.3121,-0.86807 -0.35705,-0.1911 -0.48524,-0.57946 -0.71611,-0.8824 -0.2379,-0.29696 -0.47001,-0.59889 -0.68099,-0.91498 -0.10273,-0.0882 -0.20686,-0.26457 -0.005,-0.12379 0.45859,-0.0849 0.72073,0.47726 1.00931,0.74124 0.22271,0.33918 0.63536,0.46937 0.86386,0.79876 0.32177,0.34654 0.50584,-0.28029 0.64423,-0.49607 0.4821,-0.96742 0.68101,-2.10773 0.41389,-3.16591 -0.10616,-0.30355 -0.42997,-0.59947 -0.77018,-0.46862 z m -8.11148,0.98564 -0.0229,0.0709 0.0229,-0.0709 z m -0.0271,0.13523 -0.0234,0.0715 0.0234,-0.0715 z"
           id="path2652"
           style="fill:#ffffff;fill-opacity:1;fill-rule:nonzero;stroke:none;display:inline" />
        <path
           d="m 379.22337,534.95407 c -0.13523,-1.56108 -0.32618,-3.11363 -0.51286,-4.67184 -0.19266,-1.38367 -0.52442,-2.89539 -0.97596,-5.69544"
           id="path11164"
           style="fill:none;stroke:#ffffff;stroke-width:0.214;stroke-linecap:butt;stroke-linejoin:miter;stroke-miterlimit:10;stroke-opacity:1;stroke-dasharray:none;display:inline" />
        <path
           d="m 368.78588,537.73123 c -1.09543,-1.11535 -0.89937,-2.93212 -0.51444,-4.27987 0.75181,-2.59289 2.39715,-5.02459 4.18358,-7.08336 0.72055,-0.82094 1.48393,-1.59984 2.29135,-2.32751"
           id="path11204"
           style="fill:none;stroke:#ffffff;stroke-width:0.214;stroke-linecap:butt;stroke-linejoin:miter;stroke-miterlimit:10;stroke-opacity:1;stroke-dasharray:none;display:inline" />
        <path
           d="m 373.82264,540.68387 c -0.5995,-0.26139 -0.59118,-1.10442 -0.67693,-1.70652 -0.0675,-2.75249 0.52004,-5.33827 1.12374,-7.96373 0.19649,-0.76294 0.40416,-1.52518 0.62518,-2.28471 0.22102,-0.75955 0.45538,-1.51637 0.70525,-2.26847 0.24986,-0.7521 0.51522,-1.49948 0.79822,-2.24012"
           id="path11208"
           style="fill:none;stroke:#ffffff;stroke-width:0.214;stroke-linecap:butt;stroke-linejoin:miter;stroke-miterlimit:10;stroke-opacity:1;stroke-dasharray:none;display:inline" />
        <path
           d="m 373.13211,538.39489 c 2.6441,0.78575 5.63016,0.80321 8.2724,0.0131"
           id="path11220"
           style="fill:none;stroke:#ffffff;stroke-width:0.214;stroke-linecap:butt;stroke-linejoin:miter;stroke-miterlimit:10;stroke-opacity:1;stroke-dasharray:none;display:inline" />
        <path
           d="m 367.20169,534.60228 c 1.52092,1.82807 3.65271,3.10881 5.93014,3.79222"
           id="path11224"
           style="fill:none;stroke:#ffffff;stroke-width:0.214;stroke-linecap:butt;stroke-linejoin:miter;stroke-miterlimit:10;stroke-opacity:1;stroke-dasharray:none;display:inline" />
        <path
           d="m 367.83291,529.32855 c 0.52566,0.87446 1.21782,1.65796 2.00912,2.29367 1.12073,0.93526 2.47531,1.60093 3.84515,2.01803"
           id="path11236"
           style="fill:none;stroke:#ffffff;stroke-width:0.214;stroke-linecap:butt;stroke-linejoin:miter;stroke-miterlimit:10;stroke-opacity:1;stroke-dasharray:none;display:inline" />
        <path
           d="m 371.73764,524.97267 c 0.70904,1.33079 2.01977,2.23696 3.47958,2.66804 1.20162,0.36505 2.52142,0.40453 3.75756,0.11465"
           id="path11240"
           style="fill:none;stroke:#ffffff;stroke-width:0.214;stroke-linecap:butt;stroke-linejoin:miter;stroke-miterlimit:10;stroke-opacity:1;stroke-dasharray:none;display:inline" />
        <path
           d="m 379.08225,526.3484 c 0.29261,0.4276 -0.76225,0.64658 -0.54556,0.18943 0.36381,-0.0964 0.47368,-0.57266 0.0273,-0.61715 -0.42467,-0.19567 -0.99616,-0.27911 -1.35717,0.0875 -0.35403,0.2879 -0.49406,0.75629 -0.83397,1.05191 -0.31247,0.20705 -0.7932,0.59579 -0.5434,1.00438 0.25136,0.0975 0.61746,0.11416 0.55024,0.48731 0.14094,0.43119 0.58994,0.12314 0.60493,-0.20488 0.0975,-0.4042 0.003,-0.86408 0.26548,-1.21832 0.031,-0.22444 0.56083,-0.3666 0.36631,-0.0403 -0.30938,0.29154 -0.19128,0.81607 0.24623,0.84372 0.32932,0.34182 -0.29454,0.50015 -0.38912,0.77083 -0.13458,0.39045 -0.51277,0.47366 -0.87183,0.48391 -0.37777,0.0448 -0.59017,-0.33227 -0.5081,-0.63106 -0.32731,-0.01 -0.0356,0.61811 -0.42633,0.66018 -0.44826,0.10306 -0.71245,0.56755 -1.19292,0.54302 -0.3533,-0.0255 -0.42102,0.32171 -0.24741,0.56089 0.15271,0.45958 -0.41034,0.69915 -0.72631,0.40707 -0.33492,-0.26286 -0.62471,0.0764 -0.71163,0.38973 -0.13245,0.27818 -0.15858,0.679 0.13147,0.8676 0.34366,0.33503 0.94596,0.27786 1.1749,-0.16087 0.26713,-0.35977 0.674,-0.59464 1.12418,-0.61667 0.42926,-0.10094 0.72286,0.26031 0.93059,0.57641 0.22619,0.13441 0.39925,0.57033 0.68641,0.41705 0.0952,-0.33488 -0.30119,-0.50165 -0.48754,-0.70855 -0.3603,-0.29254 0.16969,-0.61792 0.34214,-0.223 0.19147,0.30196 0.5267,0.45225 0.57882,0.83516 0.072,0.23771 0.28835,0.71101 0.56377,0.56205 -0.0147,-0.34478 -0.005,-0.8422 0.48936,-0.69492 0.41984,-0.0944 0.18754,-0.62543 0.31817,-0.91559 0.0728,-0.42768 0.59468,-0.33782 0.80928,-0.13898 0.13899,-0.13931 0.0676,-0.62357 0.3912,-0.40959 -0.0429,0.51142 0.79038,0.39995 0.74769,0.86094 -0.21458,0.43845 -0.72451,0.0808 -1.0683,0.16185 -0.30247,0.15009 -0.62999,0.25316 -0.91178,0.43668 -0.3746,0.23845 -0.18535,0.80629 0.25027,0.80541 0.47755,0.0243 0.94547,-0.13882 1.3873,-0.30639 0.25816,-0.10273 0.51176,-0.21659 0.77093,-0.3168 0.21281,-0.36071 0.56998,-0.6336 0.88117,-0.8353 0.0828,-0.34134 -0.32076,-0.46629 -0.50959,-0.66523 -0.29859,-0.27719 -0.10958,-0.82976 0.27054,-0.91771 0.35119,0.0719 0.008,0.75248 0.52068,0.64763 0.50405,-0.0946 0.6911,-0.71911 0.5319,-1.15777 -0.30613,-1.11872 -1.0595,-2.07433 -1.96522,-2.77726 -0.41212,-0.30166 -1.00051,-0.54798 -1.4847,-0.26657 -0.0706,0.0449 -0.13278,0.1042 -0.18029,0.17237 z m -5.11004,-0.83008 c -0.43607,0.19394 -0.10747,1.03572 0.33617,0.7462 0.35788,-0.2933 -0.23555,-0.54145 -0.33645,-0.74622 l 1e-5,2e-5 z m 0.64924,2.23546 c -0.3254,0.21021 -0.16433,0.63145 -0.20954,0.94715 -0.14013,0.24645 -0.41215,0.7414 0.0541,0.83209 0.4095,0.0163 0.51666,-0.45553 0.31881,-0.74801 -0.16882,-0.27366 -0.033,-0.57497 -0.0439,-0.86465 -0.0131,-0.0697 -0.0578,-0.13131 -0.11922,-0.16658 z m -0.58215,0.54418 c -0.4856,-0.0614 -0.39987,0.94904 0.0531,0.55505 0.13653,-0.14404 0.22644,-0.5123 -0.0531,-0.55505 z m 3.80517,4.06412 c -0.0245,0.19767 0.16898,-0.099 0,0 z"
           id="path6176"
           style="fill:#ffffff;fill-opacity:1;fill-rule:nonzero;stroke:none;display:inline" />
      </g>
    </g>
  </g>
</svg>
