<?xml version="1.0" encoding="UTF-8" standalone="no"?>
<!-- Created with Inkscape (http://www.inkscape.org/) -->

<svg
   xmlns:dc="http://purl.org/dc/elements/1.1/"
   xmlns:cc="http://creativecommons.org/ns#"
   xmlns:rdf="http://www.w3.org/1999/02/22-rdf-syntax-ns#"
   xmlns:svg="http://www.w3.org/2000/svg"
   xmlns="http://www.w3.org/2000/svg"
   version="1.1"
   width="141.96"
   height="27.768"
   id="svg3524">
  <defs
     id="defs3526" />
  <metadata
     id="metadata3529">
    <rdf:RDF>
      <cc:Work
         rdf:about="">
        <dc:format>image/svg+xml</dc:format>
        <dc:type
           rdf:resource="http://purl.org/dc/dcmitype/StillImage" />
        <dc:title></dc:title>
      </cc:Work>
    </rdf:RDF>
  </metadata>
  <g
     transform="translate(0,-9.6938)"
     id="layer3">
    <rect
       width="141.96"
       height="28.929"
       x="3.519e-008"
       y="8.5331"
       id="rect3140"
       style="fill:#07071f;fill-opacity:0.94118;fill-rule:nonzero;stroke:none">
      <title
         id="title3776">Fond</title>
    </rect>
  </g>
  <g
     transform="translate(-304.2,-523.5)"
     id="layer1">
    <path
       d="m 437.54,533.35 c -0.96,0 -1.87,0.16 -2.73,0.5 -0.87,0.34 -1.62,0.81 -2.26,1.42 -0.64,0.6 -1.16,1.31 -1.56,2.11 -0.4,0.8 -0.65,1.66 -0.74,2.59 -0,0.38 -0,0.76 -0,1.13 0,0.37 0.1,0.73 0.12,1.08 2.15,-0.87 4.29,-1.72 6.43,-2.57 2.15,-0.85 4.31,-1.7 6.49,-2.57 -0.55,-1.09 -1.33,-1.97 -2.36,-2.66 -1.02,-0.69 -2.14,-1.03 -3.36,-1.03 z m 8.26,4.8 c -2.5,0.99 -4.98,1.97 -7.44,2.95 -2.46,0.97 -4.94,1.96 -7.44,2.95 0.54,1.22 1.41,2.21 2.59,2.98 1.19,0.76 2.53,1.15 4.03,1.15 1,0 1.92,-0.18 2.79,-0.53 0.86,-0.35 1.61,-0.85 2.25,-1.49 0.23,0.26 0.43,0.51 0.63,0.75 0.19,0.24 0.4,0.48 0.62,0.74 -0.83,0.77 -1.77,1.38 -2.83,1.82 -1.06,0.45 -2.21,0.68 -3.46,0.68 -1.31,0 -2.53,-0.25 -3.67,-0.75 -1.13,-0.49 -2.13,-1.16 -2.98,-1.99 -0.84,-0.83 -1.52,-1.82 -2.01,-2.95 -0.5,-1.14 -0.74,-2.36 -0.74,-3.67 0,-1.28 0.24,-2.5 0.74,-3.65 0.49,-1.15 1.17,-2.15 2.01,-2.98 0.85,-0.83 1.85,-1.49 2.98,-1.99 1.14,-0.5 2.36,-0.74 3.67,-0.74 0.96,0 1.88,0.16 2.74,0.5 0.86,0.34 1.66,0.8 2.38,1.39 0.72,0.59 1.35,1.3 1.89,2.11 0.54,0.82 0.96,1.72 1.25,2.72 z m -16.4,8.44 c 0.22,0.26 0.44,0.51 0.65,0.75 0.21,0.24 0.41,0.49 0.6,0.74 -0.83,0.64 -1.75,1.15 -2.74,1.51 -0.99,0.37 -2.06,0.56 -3.21,0.56 -1.31,0 -2.54,-0.25 -3.67,-0.75 -1.14,-0.49 -2.13,-1.16 -2.98,-1.99 -0.85,-0.83 -1.52,-1.82 -2.02,-2.95 -0.49,-1.14 -0.74,-2.36 -0.74,-3.67 0,-1.28 0.25,-2.5 0.74,-3.65 0.5,-1.15 1.17,-2.15 2.02,-2.98 0.85,-0.83 1.84,-1.49 2.98,-1.99 1.13,-0.5 2.36,-0.74 3.67,-0.74 1.15,0 2.24,0.18 3.26,0.55 1.03,0.37 1.94,0.87 2.74,1.51 -0.23,0.26 -0.44,0.5 -0.65,0.74 -0.21,0.24 -0.43,0.49 -0.65,0.75 -0.64,-0.51 -1.35,-0.91 -2.14,-1.2 -0.78,-0.29 -1.64,-0.43 -2.56,-0.43 -1.06,0 -2.03,0.19 -2.93,0.57 -0.9,0.39 -1.67,0.91 -2.33,1.59 -0.66,0.67 -1.18,1.46 -1.56,2.37 -0.38,0.91 -0.57,1.88 -0.57,2.91 0,1.02 0.19,1.98 0.57,2.88 0.38,0.89 0.9,1.68 1.56,2.35 0.66,0.67 1.43,1.2 2.33,1.58 0.9,0.39 1.87,0.58 2.93,0.58 1.82,0 3.39,-0.53 4.7,-1.59 z m -32.73,-5.8 c 0,1.02 0.19,1.98 0.58,2.88 0.38,0.89 0.9,1.68 1.56,2.35 0.65,0.67 1.44,1.2 2.35,1.58 0.91,0.39 1.9,0.58 2.95,0.58 1.06,0 2.03,-0.19 2.93,-0.58 0.9,-0.38 1.68,-0.91 2.35,-1.58 0.67,-0.67 1.2,-1.46 1.59,-2.35 0.38,-0.9 0.57,-1.86 0.57,-2.88 0,-1.03 -0.19,-2 -0.57,-2.91 -0.39,-0.91 -0.92,-1.7 -1.59,-2.37 -0.67,-0.68 -1.45,-1.2 -2.35,-1.59 -0.9,-0.38 -1.87,-0.57 -2.93,-0.57 -1.05,0 -2.04,0.19 -2.95,0.57 -0.91,0.39 -1.7,0.91 -2.35,1.59 -0.66,0.67 -1.18,1.46 -1.56,2.37 -0.39,0.91 -0.58,1.88 -0.58,2.91 z m -2.01,0 c 0,-1.28 0.24,-2.49 0.74,-3.63 0.5,-1.13 1.17,-2.13 2.02,-2.97 0.84,-0.85 1.84,-1.52 3,-2.02 1.15,-0.5 2.38,-0.74 3.69,-0.74 0.93,0 1.81,0.13 2.64,0.4 0.83,0.28 1.59,0.63 2.26,1.06 0.67,0.43 1.24,0.93 1.7,1.49 0.47,0.56 0.81,1.11 1.03,1.65 0,-0.7 0,-1.4 0.1,-2.11 0,-0.7 0.1,-1.41 0.12,-2.11 l 1.63,0 0,18 -1.83,0 0,-2.16 c 0,-0.35 0,-0.69 0,-1.01 0,-0.32 0,-0.65 0,-1.01 -0.19,0.55 -0.52,1.09 -0.98,1.64 -0.47,0.54 -1.03,1.03 -1.68,1.46 -0.66,0.43 -1.41,0.78 -2.26,1.03 -0.85,0.26 -1.77,0.39 -2.76,0.39 -1.31,0 -2.54,-0.25 -3.69,-0.75 -1.16,-0.49 -2.16,-1.16 -3,-1.99 -0.85,-0.83 -1.52,-1.82 -2.02,-2.95 -0.5,-1.14 -0.74,-2.36 -0.74,-3.67 z m -1.9,-7.2 c -0.2,0.25 -0.4,0.49 -0.6,0.72 -0.21,0.22 -0.4,0.46 -0.56,0.72 -0.38,-0.45 -0.92,-0.82 -1.63,-1.11 -0.7,-0.29 -1.41,-0.43 -2.11,-0.43 -0.38,0 -0.77,0.1 -1.15,0.17 -0.39,0.11 -0.74,0.29 -1.06,0.53 -0.32,0.24 -0.57,0.54 -0.74,0.91 -0.18,0.37 -0.27,0.82 -0.27,1.37 0,0.7 0.28,1.25 0.72,1.65 0.45,0.4 1,0.74 1.64,1.01 0.64,0.27 1.34,0.53 2.11,0.77 0.77,0.24 1.47,0.55 2.11,0.93 0.64,0.39 1.18,0.88 1.61,1.49 0.43,0.61 0.65,1.43 0.65,2.45 0,0.54 -0.11,1.13 -0.32,1.75 -0.2,0.63 -0.53,1.21 -0.98,1.75 -0.45,0.55 -1.04,1 -1.77,1.37 -0.74,0.37 -1.65,0.55 -2.74,0.55 -0.99,0 -2.03,-0.17 -3.1,-0.52 -1.07,-0.36 -1.93,-0.93 -2.57,-1.73 0.23,-0.26 0.44,-0.5 0.63,-0.72 0.19,-0.23 0.41,-0.47 0.67,-0.72 0.51,0.54 1.18,0.97 2.02,1.27 0.83,0.3 1.66,0.46 2.49,0.46 0.29,0 0.64,-0.1 1.06,-0.17 0.42,-0.11 0.82,-0.31 1.2,-0.58 0.38,-0.27 0.71,-0.61 0.98,-1.03 0.27,-0.42 0.41,-0.93 0.41,-1.54 0,-0.83 -0.21,-1.47 -0.62,-1.92 -0.42,-0.44 -0.96,-0.8 -1.61,-1.08 -0.66,-0.27 -1.37,-0.51 -2.14,-0.72 -0.77,-0.2 -1.48,-0.48 -2.13,-0.84 -0.66,-0.35 -1.21,-0.81 -1.66,-1.39 -0.45,-0.57 -0.67,-1.39 -0.67,-2.45 0,-0.83 0.16,-1.56 0.48,-2.18 0.32,-0.62 0.73,-1.14 1.25,-1.56 0.51,-0.42 1.07,-0.73 1.68,-0.94 0.6,-0.2 1.2,-0.31 1.77,-0.31 0.67,0 1.5,0.15 2.47,0.46 0.98,0.3 1.8,0.84 2.48,1.61 z m -12.39,16.22 -1.97,0 0,-25.9 1.97,0 z m -20.6,-9.02 c 0,1.02 0.19,1.98 0.57,2.88 0.39,0.89 0.91,1.68 1.56,2.35 0.66,0.67 1.45,1.2 2.36,1.58 0.91,0.39 1.89,0.58 2.95,0.58 1.05,0 2.03,-0.19 2.93,-0.58 0.89,-0.38 1.68,-0.91 2.35,-1.58 0.67,-0.67 1.2,-1.46 1.58,-2.35 0.39,-0.9 0.58,-1.86 0.58,-2.88 0,-1.03 -0.19,-2 -0.58,-2.91 -0.38,-0.91 -0.91,-1.7 -1.58,-2.37 -0.67,-0.68 -1.46,-1.2 -2.35,-1.59 -0.9,-0.38 -1.88,-0.57 -2.93,-0.57 -1.06,0 -2.04,0.19 -2.95,0.57 -0.91,0.39 -1.7,0.91 -2.36,1.59 -0.65,0.67 -1.17,1.46 -1.56,2.37 -0.38,0.91 -0.57,1.88 -0.57,2.91 z m -2.02,0 c 0,-1.28 0.25,-2.49 0.75,-3.63 0.49,-1.13 1.16,-2.13 2.01,-2.97 0.85,-0.85 1.85,-1.52 3,-2.02 1.15,-0.5 2.39,-0.74 3.7,-0.74 0.93,0 1.81,0.13 2.64,0.4 0.83,0.28 1.58,0.63 2.25,1.06 0.68,0.43 1.24,0.93 1.71,1.49 0.46,0.56 0.81,1.11 1.03,1.65 0,-0.7 0,-1.4 0.1,-2.11 0,-0.7 0.1,-1.41 0.12,-2.11 l 1.63,0 0,18 -1.82,0 0,-2.16 c 0,-0.35 0,-0.69 0,-1.01 0,-0.32 0,-0.65 0,-1.01 -0.19,0.55 -0.52,1.09 -0.98,1.64 -0.47,0.54 -1.03,1.03 -1.69,1.46 -0.65,0.43 -1.4,0.78 -2.25,1.03 -0.85,0.26 -1.77,0.39 -2.76,0.39 -1.31,0 -2.55,-0.25 -3.7,-0.75 -1.15,-0.49 -2.15,-1.16 -3,-1.99 -0.85,-0.83 -1.52,-1.82 -2.01,-2.95 -0.5,-1.14 -0.75,-2.36 -0.75,-3.67 z m -1.7,9.21 -2.01,0 0,-2.69 0.14,-2.16 c -0.64,1.54 -1.67,2.76 -3.1,3.68 -1.42,0.91 -3.01,1.36 -4.77,1.36 -1.76,0 -3.15,-0.49 -4.18,-1.48 -1.02,-1 -1.57,-2.29 -1.63,-3.89 l 0,-13.01 2.01,0 0,12.48 c 0.1,1.02 0.44,1.92 1.13,2.69 0.69,0.77 1.71,1.18 3.05,1.25 0.96,0 1.89,-0.17 2.78,-0.51 0.9,-0.33 1.68,-0.79 2.36,-1.37 0.67,-0.57 1.2,-1.26 1.6,-2.06 0.41,-0.8 0.61,-1.68 0.61,-2.64 l 0,-9.84 2.01,0 z m -17.93,-16.41 c -0.19,0.25 -0.39,0.49 -0.6,0.72 -0.21,0.22 -0.39,0.46 -0.55,0.72 -0.39,-0.45 -0.93,-0.82 -1.64,-1.11 -0.7,-0.29 -1.4,-0.43 -2.11,-0.43 -0.38,0 -0.77,0.1 -1.15,0.17 -0.38,0.11 -0.74,0.29 -1.06,0.53 -0.32,0.24 -0.56,0.54 -0.74,0.91 -0.18,0.37 -0.26,0.82 -0.26,1.37 0,0.7 0.27,1.25 0.72,1.65 0.44,0.4 0.99,0.74 1.63,1.01 0.64,0.27 1.34,0.53 2.11,0.77 0.77,0.24 1.47,0.55 2.11,0.93 0.64,0.39 1.18,0.88 1.61,1.49 0.43,0.61 0.65,1.43 0.65,2.45 0,0.54 -0.11,1.13 -0.31,1.75 -0.21,0.63 -0.54,1.21 -0.99,1.75 -0.45,0.55 -1.04,1 -1.77,1.37 -0.74,0.37 -1.65,0.55 -2.74,0.55 -0.99,0 -2.02,-0.17 -3.1,-0.52 -1.07,-0.36 -1.92,-0.93 -2.56,-1.73 0.22,-0.26 0.43,-0.5 0.62,-0.72 0.19,-0.23 0.42,-0.47 0.67,-0.72 0.51,0.54 1.19,0.97 2.02,1.27 0.83,0.3 1.66,0.46 2.49,0.46 0.29,0 0.64,-0.1 1.06,-0.17 0.42,-0.11 0.82,-0.31 1.2,-0.58 0.38,-0.27 0.71,-0.61 0.98,-1.03 0.28,-0.42 0.41,-0.93 0.41,-1.54 0,-0.83 -0.21,-1.47 -0.62,-1.92 -0.42,-0.44 -0.95,-0.8 -1.61,-1.08 -0.66,-0.27 -1.37,-0.51 -2.14,-0.72 -0.76,-0.2 -1.48,-0.48 -2.13,-0.84 -0.66,-0.35 -1.21,-0.81 -1.66,-1.39 -0.45,-0.57 -0.67,-1.39 -0.67,-2.45 0,-0.83 0.16,-1.56 0.48,-2.18 0.32,-0.62 0.74,-1.14 1.25,-1.56 0.51,-0.42 1.07,-0.73 1.68,-0.94 0.61,-0.2 1.2,-0.31 1.77,-0.31 0.68,0 1.5,0.15 2.48,0.46 0.97,0.3 1.8,0.84 2.47,1.61 z m -14.95,-8.16 c 0,-0.45 0.16,-0.83 0.48,-1.13 0.32,-0.31 0.69,-0.46 1.11,-0.46 0.41,0 0.78,0.15 1.1,0.46 0.32,0.3 0.48,0.68 0.48,1.13 0,0.44 -0.16,0.82 -0.48,1.12 -0.32,0.31 -0.69,0.46 -1.1,0.46 -0.42,0 -0.79,-0.15 -1.11,-0.46 -0.32,-0.3 -0.48,-0.68 -0.48,-1.12 z m 2.55,24.38 -1.97,0 0,-18 1.97,0 z m -11.68,1.1 c -1.63,-3.2 -3.27,-6.38 -4.92,-9.55 -1.65,-3.17 -3.29,-6.35 -4.92,-9.55 l 2.02,0 c 1.31,2.53 2.65,5.09 4.03,7.68 1.38,2.59 2.64,5.18 3.79,7.78 1.15,-2.6 2.42,-5.18 3.79,-7.76 1.38,-2.57 2.72,-5.14 4.04,-7.7 l 2.01,0 c -3.23,6.3 -6.51,12.67 -9.84,19.1 z"
       id="path4029"
       style="font-size:48px;font-style:normal;font-variant:normal;font-weight:normal;font-stretch:normal;line-height:125%;letter-spacing:-5.81px;word-spacing:0px;fill:#ffffff;fill-opacity:1;stroke:none;display:inline;font-family:Josefin Sans;-inkscape-font-specification:Josefin Sans">
      <title
         id="title5161">visualsace</title>
    </path>
  </g>
  <g
     transform="translate(-304.2,-523.5)"
     id="layer2">
    <g
       transform="translate(-7.6832,7.9789)"
       id="g3040">
      <g
         transform="translate(-0.37881,1.1364)"
         id="g3122">
        <path
           d="m 382.02,531.66 c -0.31,-0.41 -1.09,-0.19 -1.11,0.33 -0.1,0.5 -0.74,0.32 -0.86,0.73 -0.1,0.31 0,0.74 -0.29,0.92 -0.36,0.19 -0.77,0.14 -1.15,0.24 -0.39,0 -0.9,-0.51 -1.2,-0.11 -0.15,0.35 -0.57,0.38 -0.79,0.1 -0.27,-0.28 -1,-0.24 -0.96,-0.72 0.17,-0.28 0,-0.56 -0.33,-0.52 -0.42,-0 -0.84,-0.16 -1.26,-0.1 -0.33,0 -0.71,0.1 -0.97,-0.17 -0.36,0 -0.79,0.25 -0.98,0.56 -0.19,0.43 -0.71,0.21 -1.01,0.47 -0.25,0.22 -0.64,0.37 -0.61,0.76 -0,0.29 -0,0.64 -0.28,0.84 -0.1,0.47 0.35,0.79 0.45,1.21 0.21,0.37 0.5,0.69 0.8,0.97 0.36,0.25 0.82,0.25 1.2,0.46 0.39,0.18 0.86,-0 1.24,0.18 0.25,0.24 0.57,0.36 0.91,0.43 0.56,0.1 0,0.69 0.38,0.98 0.4,0.19 0.6,0.55 0.85,0.9 0.31,0.21 0.7,0 1.04,0 1.15,-0.13 2.32,-0.44 3.26,-1.14 0.65,-0.45 1.12,-1.15 1.22,-1.93 0.1,-0.35 0.11,-0.77 -0.31,-0.87 -0.36,-0.19 -0.49,-0.58 -0.72,-0.89 -0.24,-0.29 -0.47,-0.59 -0.68,-0.91 -0.1,-0.1 -0.21,-0.26 -0,-0.12 0.46,-0.1 0.73,0.47 1.01,0.74 0.23,0.34 0.64,0.47 0.87,0.8 0.32,0.34 0.5,-0.28 0.64,-0.5 0.48,-0.97 0.68,-2.11 0.42,-3.17 -0.11,-0.3 -0.43,-0.6 -0.77,-0.46 z m -8.12,0.98 -0,0.1 0,-0.1 z m -0,0.14 -0,0.1 0,-0.1 z"
           id="path2652"
           style="fill:#ffffff;fill-opacity:1;fill-rule:nonzero;stroke:none;display:inline" />
        <path
           d="m 379.22,534.95 c -0.13,-1.56 -0.32,-3.11 -0.51,-4.67 -0.19,-1.38 -0.52,-2.89 -0.98,-5.69"
           id="path11164"
           style="fill:none;stroke:#ffffff;stroke-width:0.214;stroke-linecap:butt;stroke-linejoin:miter;stroke-miterlimit:10;stroke-opacity:1;stroke-dasharray:none;display:inline" />
        <path
           d="m 368.79,537.73 c -1.1,-1.11 -0.9,-2.93 -0.52,-4.28 0.75,-2.59 2.4,-5.02 4.19,-7.08 0.72,-0.82 1.48,-1.6 2.29,-2.33"
           id="path11204"
           style="fill:none;stroke:#ffffff;stroke-width:0.214;stroke-linecap:butt;stroke-linejoin:miter;stroke-miterlimit:10;stroke-opacity:1;stroke-dasharray:none;display:inline" />
        <path
           d="m 373.82,540.68 c -0.6,-0.26 -0.59,-1.1 -0.67,-1.7 -0.1,-2.76 0.52,-5.34 1.12,-7.97 0.2,-0.76 0.4,-1.52 0.62,-2.28 0.23,-0.76 0.46,-1.52 0.71,-2.27 0.25,-0.75 0.52,-1.5 0.8,-2.24"
           id="path11208"
           style="fill:none;stroke:#ffffff;stroke-width:0.214;stroke-linecap:butt;stroke-linejoin:miter;stroke-miterlimit:10;stroke-opacity:1;stroke-dasharray:none;display:inline" />
        <path
           d="m 373.13,538.39 c 2.65,0.79 5.63,0.81 8.27,0"
           id="path11220"
           style="fill:none;stroke:#ffffff;stroke-width:0.214;stroke-linecap:butt;stroke-linejoin:miter;stroke-miterlimit:10;stroke-opacity:1;stroke-dasharray:none;display:inline" />
        <path
           d="m 367.2,534.6 c 1.52,1.83 3.65,3.11 5.93,3.79"
           id="path11224"
           style="fill:none;stroke:#ffffff;stroke-width:0.214;stroke-linecap:butt;stroke-linejoin:miter;stroke-miterlimit:10;stroke-opacity:1;stroke-dasharray:none;display:inline" />
        <path
           d="m 367.83,529.33 c 0.53,0.87 1.22,1.66 2.01,2.29 1.12,0.94 2.48,1.6 3.85,2.02"
           id="path11236"
           style="fill:none;stroke:#ffffff;stroke-width:0.214;stroke-linecap:butt;stroke-linejoin:miter;stroke-miterlimit:10;stroke-opacity:1;stroke-dasharray:none;display:inline" />
        <path
           d="m 371.74,524.97 c 0.71,1.33 2.02,2.24 3.48,2.67 1.2,0.37 2.52,0.41 3.75,0.12"
           id="path11240"
           style="fill:none;stroke:#ffffff;stroke-width:0.214;stroke-linecap:butt;stroke-linejoin:miter;stroke-miterlimit:10;stroke-opacity:1;stroke-dasharray:none;display:inline" />
        <path
           d="m 379.08,526.35 c 0.29,0.43 -0.76,0.64 -0.54,0.19 0.36,-0.1 0.47,-0.57 0,-0.62 -0.42,-0.19 -0.99,-0.28 -1.35,0.1 -0.36,0.29 -0.5,0.75 -0.84,1.05 -0.31,0.21 -0.79,0.6 -0.54,1 0.25,0.1 0.62,0.12 0.55,0.49 0.14,0.43 0.59,0.12 0.6,-0.2 0.1,-0.41 0,-0.87 0.27,-1.22 0,-0.23 0.56,-0.37 0.37,-0 -0.31,0.29 -0.19,0.81 0.24,0.84 0.33,0.34 -0.29,0.5 -0.39,0.77 -0.13,0.39 -0.51,0.48 -0.87,0.49 -0.38,0 -0.59,-0.34 -0.51,-0.63 -0.32,-0 -0,0.61 -0.42,0.66 -0.45,0.1 -0.72,0.56 -1.2,0.54 -0.35,-0 -0.42,0.32 -0.24,0.56 0.15,0.46 -0.41,0.7 -0.73,0.41 -0.33,-0.27 -0.62,0.1 -0.71,0.39 -0.13,0.27 -0.16,0.68 0.13,0.86 0.34,0.34 0.95,0.28 1.18,-0.16 0.26,-0.36 0.67,-0.59 1.12,-0.61 0.43,-0.1 0.72,0.26 0.93,0.57 0.23,0.14 0.4,0.57 0.69,0.42 0.1,-0.33 -0.3,-0.5 -0.49,-0.71 -0.36,-0.29 0.17,-0.62 0.34,-0.22 0.19,0.3 0.53,0.45 0.58,0.83 0.1,0.24 0.29,0.71 0.56,0.57 -0,-0.35 0,-0.85 0.49,-0.7 0.42,-0.1 0.19,-0.62 0.32,-0.91 0.1,-0.43 0.6,-0.34 0.81,-0.14 0.14,-0.14 0.1,-0.63 0.39,-0.41 -0,0.51 0.79,0.4 0.75,0.86 -0.22,0.44 -0.73,0.1 -1.07,0.16 -0.3,0.15 -0.63,0.25 -0.91,0.44 -0.38,0.23 -0.19,0.8 0.25,0.8 0.48,0 0.95,-0.14 1.39,-0.3 0.26,-0.11 0.51,-0.22 0.77,-0.32 0.21,-0.36 0.57,-0.64 0.88,-0.84 0.1,-0.34 -0.32,-0.46 -0.51,-0.66 -0.3,-0.28 -0.11,-0.83 0.27,-0.92 0.35,0.1 0,0.75 0.52,0.65 0.5,-0.1 0.69,-0.72 0.53,-1.16 -0.3,-1.12 -1.06,-2.07 -1.96,-2.78 -0.41,-0.3 -1,-0.55 -1.49,-0.26 -0.1,0 -0.13,0.1 -0.18,0.17 z m -5.11,-0.83 c -0.43,0.19 -0.11,1.03 0.34,0.74 0.36,-0.29 -0.24,-0.54 -0.34,-0.74 l 0,0 z m 0.65,2.23 c -0.32,0.21 -0.16,0.64 -0.21,0.95 -0.14,0.25 -0.41,0.74 0.1,0.83 0.41,0 0.51,-0.45 0.31,-0.74 -0.16,-0.28 -0,-0.58 -0,-0.87 -0,-0.1 -0.1,-0.13 -0.12,-0.17 z m -0.58,0.55 c -0.49,-0.1 -0.4,0.95 0,0.55 0.14,-0.14 0.23,-0.51 -0,-0.55 z m 3.8,4.06 c -0,0.2 0.17,-0.1 0,0 z"
           id="path6176"
           style="fill:#ffffff;fill-opacity:1;fill-rule:nonzero;stroke:none;display:inline" />
      </g>
    </g>
  </g>
</svg>
